# xmcd
#
# Track frame offsets:
#	150
#	15201
#	33315
#	46262
#	57253
#	72325
#	89887
#	106326
#	116593
#	135031
#	152633
#	169066
#	184071
#
# Disc length: 2811 seconds
#
# Revision: 1
# Processed by: cddbd v1.5.1PL2 Copyright (c) Steve Scherf et al.
# Submitted via: audiograbber 1.83.01
#
DISCID=a00af90d
DTITLE=Jeffrey De Bruyn - Gospel Country Hits
DYEAR=2005
DGENRE=Gospel
TTITLE0=Jesus My Reason For Living
TTITLE1=New Star In The Sky
TTITLE2=Precious Lord
TTITLE3=Across The Bridge
TTITLE4=Please Release Me From My Sin
TTITLE5=Just A Closer Walk With Thee
TTITLE6=It Is No Secret
TTITLE7=I'll Fly Away
TTITLE8=One Day At A Time
TTITLE9=Precious Memories
TTITLE10=Why Me Lord
TTITLE11=I'd Rather Have Jesus
TTITLE12=How Great Thou Art
EXTD=
EXTT0=
EXTT1=
EXTT2=
EXTT3=
EXTT4=
EXTT5=
EXTT6=
EXTT7=
EXTT8=
EXTT9=
EXTT10=
EXTT11=
EXTT12=
PLAYORDER=
